<svg xmlns="http://www.w3.org/2000/svg" width="303.247" height="266.939" viewBox="0 0 303.247 266.939">
    <g id="prefix__vector-emptyState" transform="translate(-223.49 -678.495)">
        <path id="prefix__Path_1774" fill="#4073f7" d="M-177.49 338.78c-7.57-7.73-15.225-15.34-22.855-23.02-1.03-1.03-1.942-2.17-2.952-3.3.48-.8.808-1.36 1.158-1.91 4.37-6.88 7.465-14.55 7.975-22.45.62-9.74 1.492-19.69-2.328-29.38-2.62-6.65-5.409-13.22-9.809-18.69-6.45-8.05-14.17-15.03-23.92-18.97-5.56-2.25-11.409-4.64-17.259-5.04-7.28-.49-14.65-.88-22.12 1.11a74.235 74.235 0 0 0-21.01 8.91 60.1 60.1 0 0 0-18.16 18.45 61.355 61.355 0 0 0-10.12 33.49c-.06 3.42.73 6.85 1.04 10.28.69 7.67 3.59 14.64 7.15 21.27 2.96 5.52 7.27 10.08 11.72 14.54 10.09 10.13 22.58 15.42 36.33 17.2a54.031 54.031 0 0 0 35.21-7.23c1.62-.96 3.6-1.33 5.53-2.02 8.36 8.41 16.37 16.63 24.59 24.65a89.617 89.617 0 0 0 7.96 6.41c6.56 1.25 10.72-.12 14.1-3.76a31.658 31.658 0 0 0 3.26-4.74v-9c-2-2.27-3.45-4.71-5.49-6.8zm-113.27-60.68c-.27-17.45 15.36-34.28 34.47-34.21 21.31.09 35.09 16.87 35.07 34.57a34.526 34.526 0 0 1-35.17 34.69c-19.48-.28-34.07-15.67-34.37-35.05z" data-name="Path 1774" transform="translate(698.737 554.287)"/>
        <path id="prefix__Union_1" fill="#282728" stroke="rgba(0,0,0,0)" stroke-miterlimit="10" d="M-2314.669-3858.489l3.908 6.81c-1.164 1.043-1.933 1.731-2.533 2.271-2.896-.82-3.647-5.326-1.375-9.081zm-114.03 8.922c-1.316-1.588 5.521-16.091 9.57-20.618l2.567 1.843-9.321 18.908zm137.348-17.51c-13.108-4.283-26.175-8.686-39.257-13.042-10.857-3.615-21.7-7.264-32.566-10.851-6.69-2.208-13.465-4.169-20.086-6.562a10.659 10.659 0 0 0-7.561-.1c-17.323 5.586-34.736 10.9-52.134 16.262-3.255 1-6.524 2.256-9.869 2.605-7.641.8-12.176-2.226-14.613-9.64-3.024-9.2-5.694-18.521-8.6-27.766-5-15.932-10.09-31.838-15.1-47.768q-10.551-33.542-21.03-67.107c-.636-2.036-1.052-4.141-1.574-6.236.743-4.518 2.23-8.748 6.451-11.146a39.583 39.583 0 0 1 7.694-3.007c18.076-5.72 36.166-11.366 54.245-17.072a29.966 29.966 0 0 0 3.443-1.565c1.294-5.093-1.219-10.569 2.094-16.258.969 1.717 1.665 2.567 1.859 3.53a20.607 20.607 0 0 1-.05 3.986v130.744c1 .512.894 1.306 1.218 2.045 1.813 4.136 5.084 5.861 9.577 5.841 21.827-.1 43.655.186 65.483.186h5.633c.219 1 .384 1.844.661 3.336-1.593.088-2.981.08-4.319.071-.443 0-.881-.005-1.318 0-21.827.037-43.656.2-65.48-.051-4.808-.054-8.991 1.62-13.39 2.762-3.48.9-6.838 2.276-10.875 3.654-.767-1.132-1.354-2-2.322-3.425 5.347-1.87 10.224-3.575 15.376-5.379-1.311-2.785-3.031-5.283-3.627-8.026-.615-2.833-.136-5.9-.136-9.547l-16.585 4.755-.409-3.923 16.358-5.2c1.136-3.052.465-6.226.58-9.323.112-2.962.023-5.929.023-9.695-4.083 1.145-7.616 2.062-11.1 3.13-2.975.914-5.877 2.113-8.869 2.958a16.249 16.249 0 0 1-4.057.055c-.077-1.084-.171-1.847-.252-3.029 8.021-2.578 15.83-5.12 23.83-7.686v-18.847c-10 3.065-19.3 5.982-29.016 8.983-.525-.747-.972-1.478-1.777-2.62 1.269-.888 2.162-1.91 3.3-2.271 8.29-2.636 16.564-5.127 24.872-7.7a19.821 19.821 0 0 0 2.623-1.326v-56.293c-3-.286-6.624 1.354-9.808 2.347-10.615 3.308-21.1 6.633-31.725 9.921-5.62 1.74-11.284 3.346-16.885 5.148-3.69 1.186-7.035 2.936-8.747 8.041a68.422 68.422 0 0 0 1.626 9.131c3.465 11.421 7.231 22.75 10.8 34.137q9.021 28.741 17.941 57.514c4.738 15.294 9.38 30.618 14.1 45.918 1.242 4.027 3.054 7.677 7.347 9.647 3.029.877 6-.17 9.012-1.119q31.276-9.825 62.576-19.58 10.552-3.3 21.118-6.55a16.231 16.231 0 0 1 1.857-.353c1.162 3.156 1.027 3.771-1.395 4.523-4.223 1.313-8.494 2.469-12.736 3.723a7.815 7.815 0 0 0-1.473.916c1.283 1.636 3.072 2.067 4.657 2.589 15.109 4.969 30.27 9.783 45.368 14.788 11.992 3.977 23.883 8.258 35.893 12.176 3.224 1.051 6.719 1.27 9.436 1.754 4.375-2.292 6.394-5.092 7.383-9.122 1.276-5.193 3.224-10.225 4.985-15.29a24.623 24.623 0 0 1 2.023-3.619l2.814.939c-.525 2.294-.895 4.529-1.557 6.673-1.506 4.873-3.141 9.706-4.749 14.547-2.093 6.3-6.917 9.813-13.1 9.812a19.744 19.744 0 0 1-6.109-1.053zm-154.577-45.515c14.9-4.81 28.928-9.616 44.928-13.942v4.188c-15 4.016-28.6 9.37-43.348 13.178-.583-1.25-.945-2.064-1.579-3.424zm112.238-50.708c.91-19.45 16.69-37.14 38.8-37.01 22.45.13 38.03 17.53 38.77 38.69-.611 20.881-16.03 38.74-39.26 38.811h-.106a38.615 38.615 0 0 1-38.204-40.491zm3.929 1.4c.3 19.38 14.891 34.771 34.371 35.051a34.527 34.527 0 0 0 35.17-34.69c.02-17.7-13.76-34.48-35.07-34.57h-.119c-19.054.001-34.621 16.797-34.351 34.209zm-180.488 34.871c.538-1.3.67-2.6 1.241-2.832 4.271-1.746 8.19-4.727 13.49-4.4l.146 3.353c-4.5.7-8.176 4-13.219 4a11.652 11.652 0 0 1-1.658-.122zm104.828-35.594c-3.249.176-6.689.352-10.12-2.659 2.127-.892 3.419-1.941 4.622-1.847a26.267 26.267 0 0 0 3.835-.083c3-.209 6.092-.417 9.163 1.693l-2.4 3.124a16.809 16.809 0 0 0-5.1-.229zm18.049.06a12.2 12.2 0 0 0-3.034.05l-1.765-3.714c4.307-1.235 7.669-1.938 11.116.824a4.668 4.668 0 0 1-4.744 2.91c-.517 0-1.044-.035-1.573-.07zm112.542-10.427c.94-.439 1.66-.77 2.33-1.09 3.63 1.69 2.8 5.251 4.48 8.191-1.64.419-2.621.68-3.841.99-1.039-2.841-1.98-5.391-2.969-8.091zm-17.6-11.36c-4.06-.52-8.339.75-13.24 1.31-.02-.009-.66-.5-1.2-.919.41-.991.491-1.69.8-1.81 2.23-.931 4.47-2.271 6.8-2.491 7.55-.72 14.83.09 21.33 6-.76 1.06-1.35 1.87-1.711 2.38-4.559-1.67-8.558-3.93-12.779-4.47zm-117.9-1.075a18.351 18.351 0 0 1-4.1-.98q-.065-.854-.132-1.707c1.414-.49 2.825-1.395 4.245-1.407 8.382-.076 16.766-.073 25.149-.071h11.809c1.735 0 3.34.089 4.024 2.12-.653 2.024-2.382 2.077-4.041 2.081q-8.756.018-17.513.022-9.719-.005-19.442-.059zm175.419-12.575c-.2-1-.6-1.244-.5-1.617.9-3.453 1.778-7.119 2.871-10.513 1.394-4.329 3.017-8.584 4.45-12.9a7.429 7.429 0 0 0 .034-2.339c-1.733-4.858-5.178-7.12-10.011-8.676-21.663-6.979-43.178-14.407-64.757-21.645-1.383-.464-2.838-.708-4.677-1.154-.14 1.328-.362 2.553-.368 3.78-.034 7.5.008 15 0 22.5 0 1.961.385 4.071-2.574 5.449a12.663 12.663 0 0 1-1.64-2.963c-.306-1.082.088-2.314.088-3.481v-65.495c0-1-.224-1.783-.16-2.779.335-5.155-1.7-9.164-7.079-11.164h-106.441c-8.346 0-11.282 2-12.454 10h-3.167c-.1-1-.21-2.77-.3-4.09 1.9-4.534 4.25-7.911 8.887-9.911h107.465c1 0 1.986-.143 2.977-.229 9.3-.812 14.39 7.071 14.334 14.519-.085 11.333-.066 22.666-.066 34v4.985c24 8.1 48.378 16.17 72.436 24.019a19.021 19.021 0 0 1 9.885 6.864c2.028 4.064 1.988 8.688.313 13.289-2.3 6.317-4.363 12.554-6.619 19.553zm-139.426-12.087c1.354-.668 2.478-1.665 3.519-1.691q8.956-.212 17.919-.222h2.9v3.348a62.871 62.871 0 0 1-9.74.687c-6.267 0-12.453-.742-14.598-2.122zm-38.232 1.785c-.532 0-1.06-.616-1.74-1.04.512-1.615 1.379-2.352 2.889-2.352q2.417 0 4.836-.007c4.55-.011 9.1-.021 13.648.066 1.01.02 2 .834 3.8 1.638-1.434.977-1.957 1.64-2.486 1.646q-6.455.078-12.91.077-4.016.001-8.037-.026zm-63.976-7.318c-3.48-1.04-6.494-5.06-6.425-8.58.081-3.81 3.21-7.469 7.21-8.46 3.311-.82 6.76 1.461 9.76 6.36v4.77c-3.2 4.341-5.576 6.257-8.367 6.257a7.584 7.584 0 0 1-2.178-.347zm1.655-12.38a3.626 3.626 0 0 0-3.4 3.05c-.51 2.76.891 4.32 3.69 5.23.95-.32 2.16-.73 3.23-1.1.54-1.24 1-2.26 1.39-3.14-.723-2.427-1.96-4.072-4.324-4.072a5.577 5.577 0 0 0-.586.032zm60.687-4.958a15.357 15.357 0 0 1 3.407-.92c4.158-.108 8.321-.121 12.48-.121h61.788a16.333 16.333 0 0 1 .536 1.794 5.829 5.829 0 0 1-.2 1.375c-.416.212-.7.476-.98.476q-36.444.068-72.889.092h-.377c-1.562 0-3.075-.108-3.762-2.697zm39.938-32.872l-11.295 10.794c-3.222-.064-3.222-.064-4.928-3.636 2.087-4.7 6.867-7.317 10.289-11.976-2.547-2.589-5.219-5.235-7.811-7.956-2.514-2.637-2.488-2.7-1.616-6.574 2.577-1.886 4.637-.719 6.544 1.145 2.72 2.656 5.412 5.34 8.2 8.1 4.469-3.307 7.346-8.009 11.815-10.636 2.74 1.119 4.492 2.381 3.7 5.357l-9.886 10.2c2.781 5.43 9.593 7.443 10.257 14.485l-5.259 2.432zm109.127-23.422c4.473-6.871 10.578-12.308 16.483-18.006a6.609 6.609 0 0 1 1.419.541 13.924 13.924 0 0 1 1.572 1.674c-2.276 2.558-4.276 4.924-6.4 7.171-2.838 2.994-5.761 5.908-8.679 8.826a3.4 3.4 0 0 1-2.19 1.271c-.667-.001-1.385-.401-2.206-1.477zm-221.49-20.191l1.646-1.8c5.214 3.383 9.043 7.859 13.26 12.892l-2.761 1.874z" data-name="Union 1" transform="translate(2737.737 4794.287)"/>
    </g>
</svg>
