<?xml version="1.0" encoding="UTF-8"?>
<!DOCTYPE svg PUBLIC "-//W3C//DTD SVG 1.1//EN" "http://www.w3.org/Graphics/SVG/1.1/DTD/svg11.dtd">
<!-- Creator: CorelDRAW -->
<svg xmlns="http://www.w3.org/2000/svg" xml:space="preserve" width="2048px" height="2048px" style="shape-rendering:geometricPrecision; text-rendering:geometricPrecision; image-rendering:optimizeQuality; fill-rule:evenodd; clip-rule:evenodd"
viewBox="0 0 2048 2048"
 xmlns:xlink="http://www.w3.org/1999/xlink">
 <defs>
  <style type="text/css">
   <![CDATA[
    .fil2 {fill:none}
    .fil3 {fill:none;fill-rule:nonzero}
    .fil1 {fill:#546E7A}
    .fil0 {fill:#78909C}
    .fil5 {fill:#80DEEA}
    .fil4 {fill:#F57C00}
    .fil7 {fill:#FFA726}
    .fil6 {fill:#0097A7;fill-rule:nonzero}
   ]]>
  </style>
   <clipPath id="id0">
    <path d="M1024 0c565.541,0 1024,458.459 1024,1024 0,565.541 -458.459,1024 -1024,1024 -565.541,0 -1024,-458.459 -1024,-1024 0,-565.541 458.459,-1024 1024,-1024z"/>
   </clipPath>
 </defs>
 <g id="Layer_x0020_1">
  <metadata id="CorelCorpID_0Corel-Layer"/>
  <path class="fil0" d="M1024 0c565.541,0 1024,458.459 1024,1024 0,565.541 -458.459,1024 -1024,1024 -565.541,0 -1024,-458.459 -1024,-1024 0,-565.541 458.459,-1024 1024,-1024z"/>
  <g style="clip-path:url(#id0)">
   <g id="_308711248">
    <g>
     <polygon id="_3040424961" class="fil1" points="1357.4,535.22 2493.29,1671.1 2493.29,1837.42 1357.4,701.541 "/>
     <polygon id="_304042328" class="fil1" points="1500.87,713.605 2636.75,1849.49 2638.66,1852.03 2640.32,1854.76 2641.72,1857.65 2642.83,1860.68 2643.65,1863.85 2644.16,1867.12 2644.33,1870.49 2644.33,1925.61 1508.45,789.731 1508.45,734.606 1508.27,731.238 1507.77,727.964 1506.95,724.802 1505.84,721.767 1504.44,718.879 1502.78,716.153 "/>
     <polygon id="_304042160" class="fil1" points="1539.85,1479.71 2675.73,2615.59 2675.36,2618.95 2674.7,2622.22 2673.78,2625.38 2672.6,2628.41 2671.18,2631.29 2669.52,2634.02 2667.64,2636.57 2665.55,2638.92 2663.26,2641.06 2660.79,2642.98 2658.14,2644.64 2655.32,2646.04 2652.35,2647.16 2649.25,2647.98 2646.01,2648.49 2642.66,2648.66 1677.12,2648.66 1673.77,2648.49 1670.54,2647.98 1667.44,2647.16 1664.49,2646.04 1661.68,2644.64 1659.04,2642.98 1656.58,2641.07 520.699,1505.19 523.163,1507.1 525.802,1508.76 528.605,1510.16 531.561,1511.28 534.659,1512.1 537.889,1512.6 541.238,1512.78 1506.78,1512.78 1510.13,1512.6 1513.37,1512.1 1516.47,1511.28 1519.44,1510.16 1522.25,1508.76 1524.9,1507.09 1527.38,1505.18 1529.67,1503.04 1531.76,1500.69 1533.64,1498.14 1535.3,1495.41 1536.72,1492.52 1537.9,1489.49 1538.82,1486.34 1539.48,1483.07 "/>
     <polygon id="_304042208" class="fil1" points="1576.86,801.81 2712.75,1937.69 2714.68,1940.24 2716.35,1942.97 2717.72,1945.86 2718.78,1948.89 2719.49,1952.04 2719.85,1955.31 2719.82,1958.67 1583.94,822.785 1583.96,819.427 1583.61,816.161 1582.89,813.004 1581.84,809.973 1580.47,807.086 1578.8,804.358 "/>
     <polygon id="_304042256" class="fil1" points="1583.94,822.785 2719.82,1958.67 2675.73,2615.59 1539.85,1479.71 "/>
    </g>
    <path id="_308711128" class="fil1" d="M1550.87 789.72c18.1866,-0.00354331 34.2803,14.9445 33.0662,33.065l-44.0882 656.927c-1.21536,18.1217 -14.9043,33.065 -33.0662,33.065l-965.544 0c-18.1665,0 -31.6607,-14.9327 -33.065,-33.065l-44.0882 -568.751c-1.40551,-18.1311 14.8795,-33.065 33.065,-33.065l15.9815 0 0 -214.693c0,-17.713 14.4921,-32.2051 32.2051,-32.2051l105.33 0 0 -95.778 706.738 0 0 166.321 117.976 0c18.1878,0 33.0662,14.8784 33.0662,33.065l0 55.1245 42.424 -0.0106299z"/>
   </g>
  </g>
  <path class="fil2" d="M1024 0c565.541,0 1024,458.459 1024,1024 0,565.541 -458.459,1024 -1024,1024 -565.541,0 -1024,-458.459 -1024,-1024 0,-565.541 458.459,-1024 1024,-1024z"/>
  <path class="fil3" d="M1488.93 918.793c0.103937,0.00826772 0.408662,0.108662 0.517323,0.168898"/>
  <path class="fil4" d="M545.337 630.999l418.677 0c35.426,0 64.4103,28.9843 64.4103,64.4103l0 6.13229 446.955 0c18.1866,0 33.0662,14.8784 33.0662,33.065l0 496.003 -515.293 0 0 -70.5426 -480.022 0 0 -496.863c0,-17.713 14.4921,-32.2051 32.2051,-32.2051z"/>
  <rect class="fil5" x="650.667" y="535.221" width="706.737" height="624.845"/>
  <polygon class="fil6" points="743.688,613.498 1264.38,613.498 1264.38,648.498 743.688,648.498 "/>
  <polygon class="fil6" points="743.688,675.221 1264.38,675.221 1264.38,710.221 743.688,710.221 "/>
  <polygon class="fil6" points="743.688,736.943 1264.38,736.943 1264.38,771.944 743.688,771.944 "/>
  <polygon class="fil6" points="743.688,798.667 1264.38,798.667 1264.38,833.666 743.688,833.666 "/>
  <polygon class="fil6" points="743.688,860.39 1264.38,860.39 1264.38,895.39 743.688,895.39 "/>
  <path class="fil7" d="M497.15 877.896l323.712 0 214.244 -88.0477 515.764 -0.12874c18.1866,-0.00354331 34.2803,14.9457 33.065,33.065l-44.087 656.927c-1.21536,18.1217 -14.9043,33.065 -33.0662,33.065l-965.544 0c-18.1665,0 -31.6607,-14.9327 -33.065,-33.065l-44.0882 -568.751c-1.40433,-18.1323 14.8784,-33.065 33.065,-33.065z"/>
 </g>
</svg>
