<?xml version="1.0" encoding="utf-8"?>
<!-- Generator: Adobe Illustrator 24.3.0, SVG Export Plug-In . SVG Version: 6.00 Build 0)  -->
<svg version="1.1" id="Layer_1" xmlns="http://www.w3.org/2000/svg" xmlns:xlink="http://www.w3.org/1999/xlink" x="0px" y="0px"
	 viewBox="0 0 180 180" style="enable-background:new 0 0 180 180;" xml:space="preserve">
<style type="text/css">
	.st0{fill:#F2F2F2;}
	.st1{fill:#45525B;}
	.st2{fill:#F5F0D9;}
	.st3{fill:#657077;}
	.st4{fill:#FFFFFF;}
</style>
<g>
	<g id="XMLID_602_">
		<path class="st0" d="M90,25.4c-35.7,0-64.6,28.9-64.6,64.6c0,35.7,28.9,64.6,64.6,64.6c35.7,0,64.6-28.9,64.6-64.6
			C154.6,54.3,125.7,25.4,90,25.4z"/>
	</g>
	<g>
		<g>
			<path class="st1" d="M65.7,47.3H55.1c-0.2,0-0.4,0.2-0.4,0.4c0,0.2,0.2,0.4,0.4,0.4h10.6c0.2,0,0.4-0.2,0.4-0.4
				C66.1,47.4,65.9,47.3,65.7,47.3z"/>
		</g>
		<g>
			<path class="st1" d="M64.8,51.1h-1.7c-0.2,0-0.4,0.2-0.4,0.4c0,0.2,0.2,0.4,0.4,0.4h1.7c0.2,0,0.4-0.2,0.4-0.4
				C65.2,51.3,65,51.1,64.8,51.1z"/>
		</g>
		<g>
			<path class="st1" d="M59.9,51.1h-6.5c-0.2,0-0.4,0.2-0.4,0.4c0,0.2,0.2,0.4,0.4,0.4h6.5c0.2,0,0.4-0.2,0.4-0.4
				C60.3,51.3,60.1,51.1,59.9,51.1z"/>
		</g>
		<g>
			<path class="st1" d="M67.8,53.6H60c-0.2,0-0.4,0.2-0.4,0.4s0.2,0.4,0.4,0.4h7.8c0.2,0,0.4-0.2,0.4-0.4S68,53.6,67.8,53.6z"/>
		</g>
		<g>
			<path class="st1" d="M49.4,58.8h-0.9c-0.2,0-0.4,0.2-0.4,0.4c0,0.2,0.2,0.4,0.4,0.4h0.9c0.2,0,0.4-0.2,0.4-0.4
				C49.8,59,49.7,58.8,49.4,58.8z"/>
			<path class="st1" d="M54.1,58.8h-2.3c-0.2,0-0.4,0.2-0.4,0.4c0,0.2,0.2,0.4,0.4,0.4h2.3c0.2,0,0.4-0.2,0.4-0.4
				C54.4,59,54.3,58.8,54.1,58.8z"/>
			<path class="st1" d="M63.3,58.8H61c-0.2,0-0.4,0.2-0.4,0.4c0,0.2,0.2,0.4,0.4,0.4h2.3c0.2,0,0.4-0.2,0.4-0.4
				C63.6,59,63.5,58.8,63.3,58.8z"/>
			<path class="st1" d="M58.7,58.8h-2.3c-0.2,0-0.4,0.2-0.4,0.4c0,0.2,0.2,0.4,0.4,0.4h2.3c0.2,0,0.4-0.2,0.4-0.4
				C59,59,58.9,58.8,58.7,58.8z"/>
		</g>
		<g>
			<g>
				<path class="st1" d="M50.7,53.7h-2.9c-0.2,0-0.4,0.2-0.4,0.4s0.2,0.4,0.4,0.4h2.9c0.2,0,0.4-0.2,0.4-0.4S51,53.7,50.7,53.7z"/>
			</g>
			<g>
				<path class="st1" d="M49.2,52c-0.2,0-0.4,0.2-0.4,0.4v3.2c0,0.2,0.2,0.4,0.4,0.4c0.2,0,0.4-0.2,0.4-0.4v-3.2
					C49.6,52.2,49.5,52,49.2,52z"/>
			</g>
		</g>
	</g>
	<g>
		<g>
			<path class="st1" d="M46.8,103.8h-6.3c-0.2,0-0.4,0.2-0.4,0.4c0,0.2,0.2,0.4,0.4,0.4h6.3c0.2,0,0.4-0.2,0.4-0.4
				C47.2,104,47.1,103.8,46.8,103.8z"/>
		</g>
		<g>
			<path class="st1" d="M46.3,108h-1c-0.2,0-0.4,0.2-0.4,0.4s0.2,0.4,0.4,0.4h1c0.2,0,0.4-0.2,0.4-0.4S46.5,108,46.3,108z"/>
		</g>
		<g>
			<path class="st1" d="M43.4,108h-3.8c-0.2,0-0.4,0.2-0.4,0.4s0.2,0.4,0.4,0.4h3.8c0.2,0,0.4-0.2,0.4-0.4S43.6,108,43.4,108z"/>
		</g>
		<g>
			<path class="st1" d="M48.1,110.7h-4.6c-0.2,0-0.4,0.2-0.4,0.4c0,0.2,0.2,0.4,0.4,0.4h4.6c0.2,0,0.4-0.2,0.4-0.4
				C48.5,110.8,48.3,110.7,48.1,110.7z"/>
		</g>
		<g>
			<path class="st1" d="M40.8,116.2h-2.3c-0.2,0-0.4,0.2-0.4,0.4c0,0.2,0.2,0.4,0.4,0.4h2.3c0.2,0,0.4-0.2,0.4-0.4
				C41.2,116.4,41,116.2,40.8,116.2z"/>
			<path class="st1" d="M45.4,116.2h-2.3c-0.2,0-0.4,0.2-0.4,0.4c0,0.2,0.2,0.4,0.4,0.4h2.3c0.2,0,0.4-0.2,0.4-0.4
				C45.8,116.4,45.6,116.2,45.4,116.2z"/>
		</g>
		<g>
			<g>
				<path class="st1" d="M38.7,110.7h-3.2c-0.2,0-0.4,0.2-0.4,0.4c0,0.2,0.2,0.4,0.4,0.4h3.2c0.2,0,0.4-0.2,0.4-0.4
					C39.1,110.9,38.9,110.7,38.7,110.7z"/>
			</g>
			<g>
				<path class="st1" d="M37,108.9c-0.2,0-0.4,0.2-0.4,0.4v3.5c0,0.2,0.2,0.4,0.4,0.4c0.2,0,0.4-0.2,0.4-0.4v-3.5
					C37.4,109.1,37.2,108.9,37,108.9z"/>
			</g>
		</g>
	</g>
	<g>
		<g>
			<path class="st2" d="M58.2,75.2H35.4c-1.8,0-3.3,1.5-3.3,3.3v0.8c0,1.8,1.5,3.3,3.3,3.3h22.8c1.8,0,3.3-1.5,3.3-3.3v-0.8
				C61.5,76.7,60,75.2,58.2,75.2z"/>
		</g>
		<g>
			<path class="st2" d="M71.8,89.3H36.3c-1.8,0-3.3,1.5-3.3,3.3v0.8c0,1.8,1.5,3.3,3.3,3.3h35.5c1.8,0,3.3-1.5,3.3-3.3v-0.8
				C75,90.8,73.6,89.3,71.8,89.3z"/>
		</g>
		<g>
			<path class="st2" d="M85.4,89.3h-6.1c-1.8,0-3.3,1.5-3.3,3.3v0.8c0,1.8,1.5,3.3,3.3,3.3h6.1c1.8,0,3.3-1.5,3.3-3.3v-0.8
				C88.7,90.8,87.2,89.3,85.4,89.3z"/>
		</g>
		<g>
			<path class="st2" d="M53.9,82.3H36.4c1.8,0,3.2,1.4,3.2,3.2v0.8c0,1.8-1.4,3.2-3.2,3.2h17.6c-1.8,0-3.2-1.4-3.2-3.2v-0.8
				C50.7,83.7,52.2,82.3,53.9,82.3z"/>
		</g>
	</g>
	<g>
		<g>
			<path class="st2" d="M114,51.2H90.2c-1.8,0-3.3,1.5-3.3,3.3v1c0,1.8,1.5,3.3,3.3,3.3H114c1.8,0,3.3-1.5,3.3-3.3v-1
				C117.3,52.7,115.8,51.2,114,51.2z"/>
		</g>
		<g>
			<path class="st2" d="M113.1,36.6H76.2c-1.8,0-3.3,1.5-3.3,3.3v1c0,1.8,1.5,3.3,3.3,3.3h36.9c1.8,0,3.3-1.5,3.3-3.3v-1
				C116.4,38.1,114.9,36.6,113.1,36.6z"/>
		</g>
		<g>
			<path class="st2" d="M68.6,36.6h-6.5c-1.8,0-3.3,1.5-3.3,3.3v1c0,1.8,1.5,3.3,3.3,3.3h6.5c1.8,0,3.3-1.5,3.3-3.3v-1
				C71.9,38.1,70.4,36.6,68.6,36.6z"/>
		</g>
		<g>
			<path class="st2" d="M112.9,43.9H94.7c1.8,0,3.3,1.5,3.3,3.3v0.9c0,1.8-1.5,3.3-3.3,3.3h18.2c-1.8,0-3.3-1.5-3.3-3.3v-0.9
				C109.6,45.4,111.1,43.9,112.9,43.9z"/>
		</g>
	</g>
	<g>
		<g>
			<path class="st2" d="M94.2,119.1H70.4c-1.8,0-3.3,1.5-3.3,3.3v1c0,1.8,1.5,3.3,3.3,3.3h23.8c1.8,0,3.3-1.5,3.3-3.3v-1
				C97.4,120.6,96,119.1,94.2,119.1z"/>
		</g>
		<g>
			<path class="st2" d="M108.2,133.7H71.3c-1.8,0-3.3,1.5-3.3,3.3v1c0,1.8,1.5,3.3,3.3,3.3h36.9c1.8,0,3.3-1.5,3.3-3.3v-1
				C111.4,135.2,109.9,133.7,108.2,133.7z"/>
		</g>
		<g>
			<path class="st2" d="M122.3,133.7h-6.5c-1.8,0-3.3,1.5-3.3,3.3v1c0,1.8,1.5,3.3,3.3,3.3h6.5c1.8,0,3.3-1.5,3.3-3.3v-1
				C125.5,135.2,124.1,133.7,122.3,133.7z"/>
		</g>
		<g>
			<path class="st2" d="M89.6,126.4H71.5c1.8,0,3.3,1.5,3.3,3.3v0.9c0,1.8-1.5,3.3-3.3,3.3h18.2c-1.8,0-3.3-1.5-3.3-3.3v-0.9
				C86.3,127.9,87.8,126.4,89.6,126.4z"/>
		</g>
	</g>
	<g>
		<g>
			<path class="st2" d="M145,102.8h-23.8c-1.8,0-3.3,1.5-3.3,3.3v1c0,1.8,1.5,3.3,3.3,3.3H145c1.8,0,3.3-1.5,3.3-3.3v-1
				C148.2,104.3,146.8,102.8,145,102.8z"/>
		</g>
		<g>
			<path class="st2" d="M144.1,88.2h-36.9c-1.8,0-3.3,1.5-3.3,3.3v1c0,1.8,1.5,3.3,3.3,3.3h36.9c1.8,0,3.3-1.5,3.3-3.3v-1
				C147.3,89.7,145.9,88.2,144.1,88.2z"/>
		</g>
		<g>
			<path class="st2" d="M99.6,88.2h-6.5c-1.8,0-3.3,1.5-3.3,3.3v1c0,1.8,1.5,3.3,3.3,3.3h6.5c1.8,0,3.3-1.5,3.3-3.3v-1
				C102.8,89.7,101.4,88.2,99.6,88.2z"/>
		</g>
		<g>
			<path class="st2" d="M143.9,95.5h-18.2c1.8,0,3.3,1.5,3.3,3.3v0.9c0,1.8-1.5,3.3-3.3,3.3h18.2c-1.8,0-3.3-1.5-3.3-3.3v-0.9
				C140.6,97,142,95.5,143.9,95.5z"/>
		</g>
	</g>
	<g>
		<g>
			<g>
				<path class="st3" d="M123.3,75.4c-0.3-1.4-1.7-2.2-3.1-1.8L50,91.3c-1.4,0.3-2.2,1.7-1.8,3.1l12.1,48c0.3,1.4,1.7,2.2,3.1,1.8
					l70.2-17.8c1.4-0.3,2.2-1.7,1.8-3.1L123.3,75.4z"/>
			</g>
			<g>
				<path class="st3" d="M120.2,73.5L50,91.3c-1.4,0.3-2.2,1.7-1.8,3.1l2.2,8.6l75.3-18.5l-2.3-9.1C123,74,121.6,73.2,120.2,73.5z"
					/>
			</g>
			<g>
				<g>
					<polygon class="st4" points="105.5,44.9 96.3,49 109.3,54.7 118.4,50.6 118.4,50.5 					"/>
				</g>
				<g>
					<polygon class="st4" points="58.3,66 71.3,71.8 80.5,67.6 67.6,61.9 					"/>
				</g>
				<g>
					<polygon class="st4" points="39.3,74.6 52.3,80.3 61.5,76.1 48.6,70.4 					"/>
				</g>
				<g>
					<polygon class="st4" points="77.3,57.5 90.3,63.2 99.5,59.1 86.5,53.4 					"/>
				</g>
				<g>
					<polygon class="st3" points="105.5,44.9 118.4,50.5 114.1,41 					"/>
				</g>
				<g>
					<polygon class="st3" points="86.5,53.4 99.5,59.1 109.3,54.7 96.3,49 					"/>
				</g>
				<g>
					<polygon class="st3" points="67.6,61.9 80.5,67.6 90.3,63.2 77.3,57.5 					"/>
				</g>
				<g>
					<polygon class="st3" points="48.6,70.4 61.5,76.1 71.3,71.8 58.3,66 					"/>
				</g>
			</g>
			<g>
				<polygon class="st3" points="39.3,74.6 43.6,84.2 52.3,80.3 39.3,74.6 				"/>
			</g>
			<g>
				<g>
					<polygon class="st4" points="46.1,94.3 46.1,94.4 55.8,92 62.4,79.4 52.6,81.9 					"/>
				</g>
				<g>
					<polygon class="st4" points="86.4,84.2 96.2,81.7 102.8,69.2 93,71.7 					"/>
				</g>
				<g>
					<polygon class="st4" points="106.6,79.1 116.4,76.6 123,64.1 113.2,66.6 					"/>
				</g>
				<g>
					<polygon class="st4" points="66.2,89.3 76,86.8 82.6,74.3 72.8,76.8 					"/>
				</g>
				<g>
					<polygon class="st3" points="55.8,92 66.2,89.3 72.8,76.8 62.4,79.4 					"/>
				</g>
				<g>
					<polygon class="st3" points="76,86.8 86.4,84.2 93,71.7 82.6,74.3 					"/>
				</g>
				<g>
					<polygon class="st3" points="96.2,81.7 106.6,79.1 113.2,66.6 102.8,69.2 					"/>
				</g>
				<g>
					<polygon class="st3" points="123,64.1 116.4,76.6 125.6,74.3 123,64.1 					"/>
				</g>
			</g>
			<g>
				<g>
					<path class="st3" d="M49,72.6c-1.1-1.1-3.2-1.7-4.6-1.2l-3,1c-1.4,0.5-2.3,2.1-1.9,3.7L43.8,93c0.4,1.6,1.9,2.6,3.4,2.2
						l15.4-3.9c1.5-0.4,2.3-2,1.9-3.6L49,72.6z"/>
				</g>
			</g>
			<g>
				
					<rect x="56.5" y="86.9" transform="matrix(0.9692 -0.2464 0.2464 0.9692 -18.8664 23.6256)" class="st4" width="56.9" height="0.5"/>
			</g>
			<g>
				
					<rect x="59.4" y="100.4" transform="matrix(0.9693 -0.246 0.246 0.9693 -22.519 21.0507)" class="st4" width="27.1" height="0.5"/>
			</g>
			<g>
				
					<rect x="62.2" y="111.4" transform="matrix(0.9696 -0.2448 0.2448 0.9696 -25.0262 21.9458)" class="st4" width="27.1" height="0.5"/>
			</g>
			<g>
				
					<rect x="58.5" y="95.3" transform="matrix(0.9695 -0.2453 0.2453 0.9695 -22.146 18.3014)" class="st4" width="7.8" height="5.5"/>
			</g>
			<g>
				
					<rect x="68.4" y="92.8" transform="matrix(0.9695 -0.2453 0.2453 0.9695 -21.2254 20.662)" class="st4" width="7.8" height="5.5"/>
			</g>
			<g>
				
					<rect x="78.4" y="90.3" transform="matrix(0.9695 -0.2452 0.2452 0.9695 -20.3022 23.0189)" class="st4" width="7.8" height="5.5"/>
			</g>
			<g>
				
					<rect x="61" y="105.2" transform="matrix(0.9694 -0.2455 0.2455 0.9694 -24.5033 19.23)" class="st4" width="7.8" height="5.5"/>
			</g>
			<g>
				
					<rect x="70.9" y="102.6" transform="matrix(0.9695 -0.2452 0.2452 0.9695 -23.5637 21.571)" class="st4" width="7.8" height="5.5"/>
			</g>
			<g>
				
					<rect x="80.9" y="100.1" transform="matrix(0.9695 -0.2452 0.2452 0.9695 -22.6366 23.9223)" class="st4" width="7.8" height="5.5"/>
			</g>
		</g>
		<g id="XMLID_600_">
			<path class="st4" d="M133.8,52.1c0.6-3,2.1-5.8,4.4-8.1c-2.4,2.3-5.3,3.6-8.3,4.1c-1.7-2.5-2.7-5.6-2.6-8.9
				c-0.1,3.3-1.1,6.3-2.9,8.8c-3-0.6-5.8-2.1-8.1-4.4c2.3,2.4,3.6,5.3,4.1,8.3c-2.5,1.7-5.6,2.7-8.9,2.6c3.3,0.1,6.3,1.1,8.8,2.9
				c-0.6,3-2.1,5.8-4.4,8.1c2.4-2.3,5.3-3.6,8.3-4.1c1.7,2.5,2.7,5.6,2.6,8.9c0.1-3.3,1.1-6.3,2.9-8.8c3,0.6,5.8,2.1,8.1,4.4
				c-2.3-2.4-3.6-5.3-4.1-8.3c2.5-1.7,5.6-2.7,8.9-2.6C139.2,54.9,136.2,53.9,133.8,52.1z"/>
		</g>
	</g>
	<g>
		<g>
			<path class="st1" d="M99.6,146.4h-12c-0.2,0-0.4,0.2-0.4,0.4s0.2,0.4,0.4,0.4h12c0.2,0,0.4-0.2,0.4-0.4S99.8,146.4,99.6,146.4z"
				/>
		</g>
		<g>
			<path class="st1" d="M90.6,142.7h-1.9c-0.2,0-0.4,0.2-0.4,0.4c0,0.2,0.2,0.4,0.4,0.4h1.9c0.2,0,0.4-0.2,0.4-0.4
				C91,142.8,90.8,142.7,90.6,142.7z"/>
		</g>
		<g>
			<path class="st1" d="M101.5,142.7h-7.3c-0.2,0-0.4,0.2-0.4,0.4c0,0.2,0.2,0.4,0.4,0.4h7.3c0.2,0,0.4-0.2,0.4-0.4
				C101.9,142.8,101.7,142.7,101.5,142.7z"/>
		</g>
		<g>
			<path class="st1" d="M94.1,140.2h-8.8c-0.2,0-0.4,0.2-0.4,0.4s0.2,0.4,0.4,0.4h8.8c0.2,0,0.4-0.2,0.4-0.4S94.3,140.2,94.1,140.2z
				"/>
		</g>
	</g>
</g>
</svg>
