<?xml version="1.0" encoding="UTF-8"?>
<!DOCTYPE svg PUBLIC "-//W3C//DTD SVG 1.1//EN" "http://www.w3.org/Graphics/SVG/1.1/DTD/svg11.dtd">
<!-- Creator: CorelDRAW -->
<svg xmlns="http://www.w3.org/2000/svg" xml:space="preserve" width="6.82666in" height="6.82666in" style="shape-rendering:geometricPrecision; text-rendering:geometricPrecision; image-rendering:optimizeQuality; fill-rule:evenodd; clip-rule:evenodd"
viewBox="0 0 6.82666 6.82666"
 xmlns:xlink="http://www.w3.org/1999/xlink">
 <defs>
  <style type="text/css">
   <![CDATA[
    .fil2 {fill:none}
    .fil1 {fill:#2F1C87}
    .fil0 {fill:#4527A0}
    .fil4 {fill:#C0CA33;fill-rule:nonzero}
    .fil3 {fill:#DCE775;fill-rule:nonzero}
   ]]>
  </style>
   <clipPath id="id0">
    <path d="M3.41333 0c1.88513,0 3.41333,1.5282 3.41333,3.41333 0,1.88513 -1.5282,3.41333 -3.41333,3.41333 -1.88513,0 -3.41333,-1.5282 -3.41333,-3.41333 0,-1.88513 1.5282,-3.41333 3.41333,-3.41333z"/>
   </clipPath>
 </defs>
 <g id="Layer_x0020_1">
  <metadata id="CorelCorpID_0Corel-Layer"/>
  <path class="fil0" d="M3.41333 0c1.88513,0 3.41333,1.5282 3.41333,3.41333 0,1.88513 -1.5282,3.41333 -3.41333,3.41333 -1.88513,0 -3.41333,-1.5282 -3.41333,-3.41333 0,-1.88513 1.5282,-3.41333 3.41333,-3.41333z"/>
  <g style="clip-path:url(#id0)">
   <g id="_328326864">
    <g>
     <polygon id="_3305274321" class="fil1" points="4.37915,2.45775 8.16542,6.24402 6.53981,6.82956 2.75355,3.04329 "/>
     <polygon id="_330527384" class="fil1" points="4.85156,4.1863 8.63783,7.97257 8.63974,7.98665 8.64108,8.00091 8.64184,8.01534 8.64202,8.02993 8.64161,8.04467 8.64061,8.05953 8.63902,8.07451 8.63683,8.08958 8.63405,8.10474 8.63067,8.11996 8.62668,8.13523 8.62208,8.15054 8.61687,8.16588 8.61104,8.18122 8.6046,8.19655 8.59754,8.21186 8.58985,8.22713 8.58153,8.24235 8.57258,8.2575 8.563,8.27256 8.55278,8.28753 8.54191,8.30238 8.53041,8.31711 8.51825,8.33169 8.50544,8.34611 8.49198,8.36035 8.47787,8.37441 8.46309,8.38826 8.44765,8.40189 8.43154,8.41529 8.41476,8.42844 8.3973,8.44132 4.61103,4.65505 4.62849,4.64217 4.64527,4.62902 4.66138,4.61562 4.67682,4.60199 4.6916,4.58813 4.70572,4.57408 4.71918,4.55983 4.73198,4.54541 4.74414,4.53083 4.75564,4.51611 4.76651,4.50126 4.77673,4.48629 4.78631,4.47122 4.79526,4.45608 4.80358,4.44086 4.81127,4.42559 4.81833,4.41028 4.82478,4.39494 4.8306,4.37961 4.83581,4.36427 4.84041,4.34896 4.8444,4.33369 4.84778,4.31846 4.85057,4.30331 4.85275,4.28824 4.85434,4.27326 4.85534,4.2584 4.85575,4.24366 4.85557,4.22907 4.85481,4.21464 4.85348,4.20037 "/>
     <polygon id="_330528752" class="fil1" points="2.75355,3.04329 6.53981,6.82956 6.78373,8.46373 2.99746,4.67746 "/>
     <polygon id="_330528824" class="fil1" points="4.45757,1.54667 8.24384,5.33294 8.63783,7.97257 4.85156,4.1863 "/>
     <polygon id="_330528176" class="fil1" points="4.61103,4.65505 8.3973,8.44132 8.37237,8.45852 8.3472,8.47446 8.32184,8.48917 8.29633,8.50265 8.2707,8.51493 8.24501,8.52602 8.21929,8.53594 8.19358,8.5447 8.16793,8.55232 8.14237,8.55882 8.11694,8.56421 8.09169,8.56852 8.06665,8.57175 8.04188,8.57393 8.0174,8.57506 7.99326,8.57517 7.9695,8.57428 7.94617,8.57239 7.92329,8.56953 7.90092,8.56571 7.87909,8.56096 7.85785,8.55528 7.83723,8.54869 7.81728,8.54121 7.79803,8.53286 7.77954,8.52365 7.76183,8.5136 7.74496,8.50272 7.72895,8.49104 7.71386,8.47857 7.69972,8.46532 3.91345,4.67905 3.92759,4.6923 3.94269,4.70477 3.95869,4.71645 3.97556,4.72733 3.99327,4.73738 4.01176,4.74659 4.03101,4.75494 4.05096,4.76242 4.07158,4.76901 4.09282,4.77469 4.11465,4.77944 4.13702,4.78326 4.1599,4.78612 4.18324,4.788 4.20699,4.7889 4.23113,4.78879 4.25561,4.78765 4.28039,4.78548 4.30542,4.78225 4.33067,4.77794 4.3561,4.77255 4.38166,4.76605 4.40731,4.75843 4.43302,4.74967 4.45874,4.73975 4.48444,4.72866 4.51006,4.71638 4.53557,4.7029 4.56093,4.68819 4.5861,4.67225 "/>
     <polygon id="_330528248" class="fil1" points="2.99746,4.67746 6.78373,8.46373 6.78563,8.4778 6.78694,8.49207 6.78769,8.50651 6.78785,8.5211 6.78744,8.53584 6.78643,8.55071 6.78483,8.56569 6.78265,8.58077 6.77986,8.59593 6.77647,8.61116 6.77248,8.62644 6.76788,8.64176 6.76267,8.6571 6.75685,8.67245 6.75041,8.68779 6.74335,8.7031 6.73566,8.71838 6.72735,8.7336 6.7184,8.74876 6.70882,8.76383 6.6986,8.7788 6.68774,8.79366 6.67623,8.80839 6.66408,8.82298 6.65127,8.8374 6.63781,8.85165 6.62369,8.86571 6.6089,8.87957 6.59345,8.8932 6.57733,8.90661 6.56054,8.91976 6.54307,8.93264 2.75681,5.14637 2.77428,5.13348 2.79107,5.12033 2.80719,5.10693 2.82263,5.0933 2.83742,5.07944 2.85154,5.06538 2.865,5.05113 2.87781,5.0367 2.88996,5.02212 2.90147,5.00739 2.91233,4.99253 2.92255,4.97756 2.93213,4.96249 2.94108,4.94733 2.94939,4.93211 2.95708,4.91683 2.96414,4.90152 2.97058,4.88618 2.97641,4.87083 2.98161,4.85549 2.98621,4.84017 2.9902,4.82489 2.99359,4.80966 2.99638,4.7945 2.99857,4.77942 3.00016,4.76444 3.00117,4.74957 3.00159,4.73483 3.00142,4.72024 3.00068,4.7058 2.99936,4.69153 "/>
     <polygon id="_330528368" class="fil1" points="2.75681,5.14637 6.54307,8.93264 6.51824,8.9498 6.49316,8.9657 6.46789,8.98036 6.44245,8.99381 6.4169,9.00606 6.39128,9.01713 6.36562,9.02702 6.33996,9.03576 6.31435,9.04337 6.28883,9.04986 6.26344,9.05524 6.23822,9.05954 6.21321,9.06277 6.18845,9.06494 6.16399,9.06608 6.13985,9.06619 6.11609,9.0653 6.09275,9.06343 6.06986,9.06057 6.04747,9.05677 6.02561,9.05203 6.00434,9.04636 5.98369,9.03979 5.96369,9.03233 5.9444,9.02399 5.92585,9.0148 5.90807,9.00476 5.89113,8.99391 5.87505,8.98224 5.85988,8.96978 2.07361,5.18351 2.08878,5.19596 2.10486,5.20763 2.12181,5.21849 2.13958,5.22852 2.15813,5.23772 2.17742,5.24606 2.19742,5.25352 2.21807,5.26009 2.23935,5.26576 2.2612,5.2705 2.28359,5.2743 2.30648,5.27715 2.32983,5.27903 2.35359,5.27992 2.37772,5.27981 2.40219,5.27867 2.42694,5.2765 2.45196,5.27327 2.47718,5.26897 2.50257,5.26359 2.52809,5.2571 2.55369,5.24949 2.57935,5.24075 2.60501,5.23085 2.63063,5.21979 2.65619,5.20754 2.68162,5.19409 2.70689,5.17943 2.73197,5.16352 "/>
    </g>
    <path id="_328326792" class="fil1" d="M4.45757 1.54667l0.393992 2.63964c0.0234606,0.149051 -0.0507402,0.332795 -0.240531,0.468744 -0.264571,0.19022 -0.575957,0.163382 -0.710724,0.00999606 -0.134874,-0.153594 -0.0939449,-0.433618 0.169291,-0.623642 0.177925,-0.126969 0.376378,-0.156587 0.528701,-0.115417l-0.21915 -1.46823 -1.6256 0.585539 0.243917 1.63417c0.0232402,0.149087 -0.0507165,0.332941 -0.240657,0.468913 -0.263512,0.189685 -0.574858,0.163146 -0.710661,0.00991339 -0.134886,-0.153673 -0.094252,-0.43365 0.16928,-0.623717 0.177776,-0.126945 0.376079,-0.156543 0.528591,-0.11563l-0.319138 -2.13813 2.03269 -0.732142z"/>
   </g>
  </g>
  <path class="fil2" d="M3.41333 0c1.88513,0 3.41333,1.5282 3.41333,3.41333 0,1.88513 -1.5282,3.41333 -3.41333,3.41333 -1.88513,0 -3.41333,-1.5282 -3.41333,-3.41333 0,-1.88513 1.5282,-3.41333 3.41333,-3.41333z"/>
  <path class="fil3" d="M2.42488 2.27881l0.319138 2.13813c-0.152512,-0.0409134 -0.350815,-0.011315 -0.528591,0.11563 -0.263531,0.190067 -0.304165,0.470043 -0.16928,0.623717 0.135803,0.153232 0.44715,0.179772 0.710661,-0.00991339 0.189941,-0.135972 0.263898,-0.319827 0.240657,-0.468913l-0.243917 -1.63417 1.6256 -0.585539 0.21915 1.46823c-0.152323,-0.0411693 -0.350776,-0.0115512 -0.528701,0.115417 -0.263236,0.190024 -0.304165,0.470047 -0.169291,0.623642 0.134768,0.153386 0.446154,0.180224 0.710724,-0.00999606 0.189791,-0.135949 0.263992,-0.319693 0.240531,-0.468744l-0.393992 -2.63964 -2.03269 0.732142z"/>
  <path class="fil4" d="M2.74402 4.41694c-0.152512,-0.0409134 -0.350815,-0.011315 -0.528591,0.11563 -0.263531,0.190067 -0.304165,0.470043 -0.16928,0.623717 0.135803,0.153232 0.44715,0.179772 0.710661,-0.00991339 0.189941,-0.135972 0.263898,-0.319827 0.240657,-0.468913 -0.0510276,-0.160343 -0.141555,-0.233961 -0.253449,-0.26052z"/>
  <path class="fil4" d="M4.5983 3.92598c-0.152323,-0.0411693 -0.350776,-0.0115512 -0.528701,0.115417 -0.263236,0.190024 -0.304165,0.470047 -0.169291,0.623642 0.134768,0.153386 0.446154,0.180224 0.710724,-0.00999606 0.189791,-0.135949 0.263992,-0.319693 0.240531,-0.468744 -0.0637756,-0.109484 -0.147303,-0.197205 -0.253264,-0.260319z"/>
 </g>
</svg>
