<?xml version="1.0" encoding="UTF-8"?>
<!DOCTYPE svg PUBLIC "-//W3C//DTD SVG 1.1//EN" "http://www.w3.org/Graphics/SVG/1.1/DTD/svg11.dtd">
<!-- Creator: CorelDRAW -->
<svg xmlns="http://www.w3.org/2000/svg" xml:space="preserve" width="2048px" height="2048px" style="shape-rendering:geometricPrecision; text-rendering:geometricPrecision; image-rendering:optimizeQuality; fill-rule:evenodd; clip-rule:evenodd"
viewBox="0 0 2048 2048"
 xmlns:xlink="http://www.w3.org/1999/xlink">
 <defs>
  <style type="text/css">
   <![CDATA[
    .fil2 {fill:none}
    .fil9 {fill:#1B2327}
    .fil10 {fill:#20302A}
    .fil17 {fill:#253035}
    .fil4 {fill:#353A3E}
    .fil24 {fill:#37474F}
    .fil3 {fill:#3E4246}
    .fil12 {fill:#494F56}
    .fil11 {fill:#555A61}
    .fil19 {fill:#7B838E}
    .fil18 {fill:#989FAA}
    .fil1 {fill:#FF8A65}
    .fil0 {fill:#FFAB91}
    .fil5 {fill:#1F2730;fill-rule:nonzero}
    .fil13 {fill:#2A3541;fill-rule:nonzero}
    .fil8 {fill:#354D21;fill-rule:nonzero}
    .fil16 {fill:#49692E;fill-rule:nonzero}
    .fil20 {fill:#526072;fill-rule:nonzero}
    .fil6 {fill:#632828;fill-rule:nonzero}
    .fil7 {fill:#684A21;fill-rule:nonzero}
    .fil23 {fill:#7CB342;fill-rule:nonzero}
    .fil14 {fill:#873636;fill-rule:nonzero}
    .fil15 {fill:#8E652D;fill-rule:nonzero}
    .fil21 {fill:#EF5350;fill-rule:nonzero}
    .fil22 {fill:#FFAB40;fill-rule:nonzero}
   ]]>
  </style>
   <clipPath id="id0">
    <path d="M1024 -0.0011811c565.539,0 1024,458.462 1024,1024 0,565.539 -458.462,1024 -1024,1024 -565.539,0 -1024,-458.462 -1024,-1024 0,-565.539 458.462,-1024 1024,-1024z"/>
   </clipPath>
 </defs>
 <g id="Layer_x0020_1">
  <metadata id="CorelCorpID_0Corel-Layer"/>
  <path class="fil0" d="M1024 -0.0011811c565.539,0 1024,458.462 1024,1024 0,565.539 -458.462,1024 -1024,1024 -565.539,0 -1024,-458.462 -1024,-1024 0,-565.539 458.462,-1024 1024,-1024z"/>
  <g style="clip-path:url(#id0)">
   <g id="_289346192">
    <g>
     <polygon id="_2886115601" class="fil1" points="1584,636.245 2719.88,1772.13 2719.88,1913.6 1584,777.72 "/>
     <polygon id="_288610984" class="fil1" points="1584,777.72 2719.88,1913.6 2719.88,1945.04 1584,809.156 "/>
     <polygon id="_288611704" class="fil1" points="1584,809.156 2719.88,1945.04 2719.88,2337.29 1584,1201.41 "/>
     <polygon id="_288611632" class="fil1" points="1584,1201.41 2719.88,2337.29 2719.8,2338.9 2719.56,2340.46 2719.18,2341.96 2718.65,2343.41 2717.98,2344.78 2717.2,2346.08 2716.29,2347.29 2715.28,2348.4 2714.16,2349.42 2712.95,2350.32 2711.65,2351.11 2710.28,2351.77 2708.84,2352.3 2707.33,2352.69 2705.77,2352.93 2704.16,2353.01 1568.28,1217.12 1569.89,1217.04 1571.45,1216.81 1572.96,1216.42 1574.4,1215.89 1575.77,1215.23 1577.07,1214.44 1578.28,1213.54 1579.4,1212.52 1580.41,1211.4 1581.32,1210.19 1582.1,1208.9 1582.77,1207.52 1583.29,1206.08 1583.68,1204.57 1583.92,1203.01 "/>
     <polygon id="_288611800" class="fil1" points="1568.28,1217.12 2704.16,2353.01 2505.31,2353.01 1369.43,1217.12 "/>
     <polygon id="_288611728" class="fil1" points="1369.43,1217.12 2505.31,2353.01 2505.31,2547.64 1369.43,1411.76 "/>
     <polygon id="_288611896" class="fil1" points="1369.43,1411.76 2505.31,2547.64 2505.23,2549.24 2504.99,2550.81 2504.61,2552.31 2504.08,2553.76 2503.41,2555.13 2502.63,2556.43 2501.72,2557.64 2500.71,2558.75 2499.59,2559.77 2498.38,2560.67 2497.08,2561.46 2495.71,2562.12 2494.27,2562.65 2492.76,2563.04 2491.2,2563.28 2489.59,2563.36 1353.71,1427.47 1355.32,1427.39 1356.88,1427.16 1358.39,1426.77 1359.83,1426.24 1361.2,1425.58 1362.5,1424.79 1363.71,1423.88 1364.83,1422.87 1365.84,1421.75 1366.75,1420.54 1367.53,1419.25 1368.19,1417.87 1368.72,1416.43 1369.11,1414.92 1369.35,1413.36 "/>
     <polygon id="_288612040" class="fil1" points="614.904,1336.49 1750.78,2472.38 1615.6,2472.38 479.718,1336.49 "/>
     <polygon id="_288611848" class="fil1" points="630.623,1427.47 1766.5,2563.36 1764.9,2563.28 1763.34,2563.04 1761.83,2562.65 1760.39,2562.12 1759.01,2561.46 1757.72,2560.67 1756.5,2559.77 620.624,1423.88 621.834,1424.79 623.13,1425.58 624.505,1426.24 625.948,1426.77 627.455,1427.16 629.015,1427.39 "/>
     <polygon id="_288612304" class="fil1" points="1353.71,1427.47 2489.59,2563.36 1766.5,2563.36 630.623,1427.47 "/>
     <polygon id="_288611968" class="fil1" points="479.718,1336.49 1615.6,2472.38 1613.99,2472.29 1612.43,2472.06 1610.92,2471.67 1609.48,2471.14 1608.11,2470.48 1606.81,2469.69 1605.6,2468.79 469.719,1332.9 470.929,1333.81 472.225,1334.6 473.6,1335.26 475.043,1335.79 476.55,1336.17 478.111,1336.41 "/>
     <polygon id="_288611824" class="fil1" points="1580.41,626.246 2716.29,1762.13 2717.2,1763.34 2717.98,1764.63 2718.65,1766.01 2719.18,1767.45 2719.56,1768.96 2719.8,1770.52 2719.88,1772.13 1584,636.245 1583.92,634.637 1583.68,633.077 1583.29,631.57 1582.77,630.127 1582.1,628.752 1581.32,627.456 "/>
    </g>
    <path id="_289346768" class="fil1" d="M1584 636.245l0 141.475 0 31.4362 0 392.249c0,8.68111 -7.03938,15.7193 -15.7205,15.7193l-198.851 0 0 194.63c0,8.68111 -7.03701,15.7193 -15.7193,15.7193l-723.088 0c-8.68111,0 -15.7193,-7.03819 -15.7193,-15.7193l0 -75.2623 -135.186 0c-8.68111,0 -15.7193,-7.03701 -15.7193,-15.7193l0 -392.248 0 -31.4386 0 -141.474c0,-8.68111 7.03819,-15.7193 15.7193,-15.7193l349.755 0 0 -103.649c0,-8.68111 7.03819,-15.7205 15.7193,-15.7205l723.088 0c8.68111,0 15.7205,7.03938 15.7205,15.7205z"/>
   </g>
  </g>
  <path class="fil2" d="M1024 -0.0011811c565.539,0 1024,458.462 1024,1024 0,565.539 -458.462,1024 -1024,1024 -565.539,0 -1024,-458.462 -1024,-1024 0,-565.539 458.462,-1024 1024,-1024z"/>
  <path class="fil3" d="M1584 777.72l0 423.685c0,8.68111 -7.03819,15.7193 -15.7193,15.7193l-723.088 0c-8.68111,0 -15.7193,-7.03819 -15.7193,-15.7193l0 -423.685 754.527 0z"/>
  <polygon class="fil4" points="1584,777.72 1584,809.156 829.473,809.156 829.473,777.72 "/>
  <path class="fil5" d="M845.193 620.524l723.088 0c8.68111,0 15.7193,7.03938 15.7193,15.7205l0 141.474 -754.527 0 0 -141.474c0,-8.68111 7.03819,-15.7205 15.7193,-15.7205z"/>
  <polygon class="fil6" points="1458.32,666.88 1458.32,729.756 1521.19,729.756 1521.19,666.88 "/>
  <polygon class="fil7" points="1238.1,729.756 1300.97,729.756 1300.97,666.88 1238.1,666.88 "/>
  <polygon class="fil8" points="1348.05,666.88 1348.05,729.756 1410.92,729.756 1410.92,666.88 "/>
  <polygon class="fil9" points="1308.38,1084.22 1308.38,1061.55 1473.59,1061.55 1473.59,1084.22 "/>
  <polygon class="fil9" points="1138.79,1052.89 1245.3,997.154 1138.79,941.893 1138.79,910.622 1273.28,982.295 1273.28,1011.66 1138.79,1084.22 "/>
  <polygon class="fil10" points="1074.37,1084.22 939.885,1011.66 939.885,982.295 1074.37,910.622 1074.37,941.893 967.729,997.154 1074.37,1052.89 "/>
  <path class="fil11" d="M1218.53 897.088l0 423.685c0,8.68111 -7.03819,15.7205 -15.7193,15.7205l-723.088 0c-8.68111,0 -15.7193,-7.03938 -15.7193,-15.7205l0 -423.685 754.527 0z"/>
  <polygon class="fil12" points="1218.53,897.088 1218.53,928.524 463.999,928.524 463.999,897.088 "/>
  <path class="fil13" d="M479.718 739.894l723.088 0c8.68111,0 15.7193,7.03819 15.7193,15.7193l0 141.474 -754.527 0 0 -141.474c0,-8.68111 7.03819,-15.7193 15.7193,-15.7193z"/>
  <polygon class="fil14" points="1092.84,786.249 1092.84,849.126 1155.72,849.126 1155.72,786.249 "/>
  <polygon class="fil15" points="872.624,849.126 935.5,849.126 935.5,786.249 872.624,786.249 "/>
  <polygon class="fil16" points="982.574,786.249 982.574,849.126 1045.45,849.126 1045.45,786.249 "/>
  <polygon class="fil17" points="942.901,1203.59 942.901,1180.91 1108.11,1180.91 1108.11,1203.59 "/>
  <polygon class="fil17" points="773.319,1172.26 879.822,1116.52 773.319,1061.26 773.319,1029.99 907.807,1101.66 907.807,1131.02 773.319,1203.59 "/>
  <polygon class="fil17" points="708.898,1203.59 574.411,1131.02 574.411,1101.66 708.898,1029.99 708.898,1061.26 602.254,1116.52 708.898,1172.26 "/>
  <path class="fil18" d="M1369.43 988.07l0 423.685c0,8.68111 -7.03819,15.7193 -15.7193,15.7193l-723.087 0c-8.68229,0 -15.7205,-7.03819 -15.7205,-15.7193l0 -423.685 754.527 0z"/>
  <polygon class="fil19" points="1369.43,988.07 1369.43,1019.51 614.904,1019.51 614.904,988.07 "/>
  <path class="fil20" d="M630.624 830.874l723.087 0c8.68111,0 15.7193,7.03819 15.7193,15.7205l0 141.474 -754.527 0 0 -141.474c0,-8.68229 7.03819,-15.7205 15.7205,-15.7205z"/>
  <polygon class="fil21" points="1243.75,877.23 1243.75,940.106 1306.63,940.106 1306.63,877.23 "/>
  <polygon class="fil22" points="1023.53,940.106 1086.41,940.106 1086.41,877.23 1023.53,877.23 "/>
  <polygon class="fil23" points="1133.48,877.23 1133.48,940.106 1196.36,940.106 1196.36,877.23 "/>
  <polygon class="fil24" points="1093.81,1294.57 1093.81,1271.89 1259.02,1271.89 1259.02,1294.57 "/>
  <polygon class="fil24" points="924.224,1263.24 1030.73,1207.5 924.224,1152.24 924.224,1120.97 1058.71,1192.65 1058.71,1222.01 924.224,1294.57 "/>
  <polygon class="fil24" points="859.803,1294.57 725.316,1222.01 725.316,1192.65 859.803,1120.97 859.803,1152.24 753.159,1207.5 859.803,1263.24 "/>
 </g>
</svg>
