<?xml version="1.0" encoding="UTF-8"?>
<!DOCTYPE svg PUBLIC "-//W3C//DTD SVG 1.1//EN" "http://www.w3.org/Graphics/SVG/1.1/DTD/svg11.dtd">
<!-- Creator: CorelDRAW -->
<svg xmlns="http://www.w3.org/2000/svg" xml:space="preserve" width="6.82666in" height="6.82666in" style="shape-rendering:geometricPrecision; text-rendering:geometricPrecision; image-rendering:optimizeQuality; fill-rule:evenodd; clip-rule:evenodd"
viewBox="0 0 6.82666 6.82666"
 xmlns:xlink="http://www.w3.org/1999/xlink">
 <defs>
  <style type="text/css">
   <![CDATA[
    .fil2 {fill:none}
    .fil3 {fill:#424242}
    .fil5 {fill:#D5D5D4}
    .fil1 {fill:#E64A19}
    .fil0 {fill:#FF7043}
    .fil4 {fill:#FFFFFE}
   ]]>
  </style>
   <clipPath id="id0">
    <path d="M3.41333 0c1.88513,0 3.41333,1.5282 3.41333,3.41333 0,1.88513 -1.5282,3.41333 -3.41333,3.41333 -1.88513,0 -3.41333,-1.5282 -3.41333,-3.41333 0,-1.88513 1.5282,-3.41333 3.41333,-3.41333z"/>
   </clipPath>
 </defs>
 <g id="Layer_x0020_1">
  <metadata id="CorelCorpID_0Corel-Layer"/>
  <path class="fil0" d="M3.41333 0c1.88513,0 3.41333,1.5282 3.41333,3.41333 0,1.88513 -1.5282,3.41333 -3.41333,3.41333 -1.88513,0 -3.41333,-1.5282 -3.41333,-3.41333 0,-1.88513 1.5282,-3.41333 3.41333,-3.41333z"/>
  <g style="clip-path:url(#id0)">
   <g id="_328322328">
    <g>
     <polygon id="_3293861761" class="fil1" points="4.06565,2.21287 7.85191,5.99915 7.85971,6.00793 7.8673,6.01691 7.87468,6.02606 7.88183,6.0354 7.88877,6.04491 7.89548,6.05459 7.90196,6.06444 7.90822,6.07445 7.91423,6.08462 7.92,6.09495 7.92554,6.10543 7.93081,6.11606 7.93585,6.12683 7.94062,6.13774 7.94513,6.14879 7.94939,6.15997 7.95337,6.17128 7.95708,6.18271 7.96052,6.19427 7.96368,6.20594 7.96656,6.21773 7.96915,6.22962 7.97144,6.24163 7.97345,6.25373 7.97516,6.26593 7.97656,6.27822 7.97766,6.29061 7.97845,6.30308 7.97893,6.31564 7.97909,6.32827 4.19282,2.542 4.19266,2.52937 4.19219,2.51681 4.19139,2.50434 4.1903,2.49195 4.18889,2.47966 4.18718,2.46746 4.18518,2.45535 4.18288,2.44335 4.18029,2.43146 4.17741,2.41967 4.17425,2.408 4.17081,2.39644 4.1671,2.38501 4.16312,2.3737 4.15887,2.36252 4.15435,2.35147 4.14958,2.34056 4.14455,2.32979 4.13927,2.31916 4.13374,2.30868 4.12796,2.29835 4.12195,2.28818 4.1157,2.27817 4.10922,2.26832 4.1025,2.25864 4.09557,2.24913 4.08841,2.23979 4.08103,2.23063 4.07344,2.22166 "/>
     <polygon id="_329386272" class="fil1" points="3.06749,1.95567 6.85376,5.74194 6.86376,5.75266 6.87352,5.7636 6.88303,5.77477 6.89228,5.78616 6.90128,5.79777 6.91001,5.80958 6.91847,5.82161 6.92666,5.83383 6.93457,5.84625 6.9422,5.85887 6.94955,5.87167 6.9566,5.88466 6.96336,5.89783 6.96982,5.91117 6.97598,5.92468 6.98183,5.93836 6.98737,5.9522 6.99258,5.9662 6.99748,5.98036 7.00205,5.99466 7.00629,6.00911 7.0102,6.02369 7.01377,6.03841 7.01699,6.05327 7.01987,6.06825 7.02239,6.08335 7.02456,6.09857 7.02636,6.1139 7.0278,6.12934 7.02887,6.14489 7.02957,6.16054 3.2433,2.37426 3.2426,2.35862 3.24154,2.34307 3.24009,2.32763 3.23829,2.3123 3.23612,2.29708 3.2336,2.28198 3.23072,2.267 3.2275,2.25214 3.22393,2.23742 3.22002,2.22283 3.21578,2.20839 3.21121,2.19409 3.20631,2.17993 3.2011,2.16593 3.19556,2.15209 3.18971,2.13841 3.18356,2.1249 3.17709,2.11156 3.17033,2.09839 3.16328,2.0854 3.15594,2.07259 3.14831,2.05998 3.14039,2.04756 3.1322,2.03533 3.12374,2.02331 3.11501,2.0115 3.10602,1.99989 3.09676,1.9885 3.08725,1.97733 3.07749,1.96639 "/>
     <polygon id="_329387496" class="fil1" points="4.04944,2.88813 7.8357,6.6744 7.8273,6.6826 7.8187,6.69061 7.80992,6.69841 7.80094,6.70599 7.79179,6.71337 7.78245,6.72053 7.77294,6.72746 7.76326,6.73418 7.75341,6.74066 7.7434,6.74691 7.73323,6.75293 7.7229,6.7587 7.71243,6.76423 7.7018,6.76951 7.69102,6.77454 7.68011,6.77931 7.66907,6.78383 7.65789,6.78808 7.64657,6.79206 7.63514,6.79578 7.62358,6.79921 7.61191,6.80237 7.60013,6.80525 7.58823,6.80784 7.57623,6.81014 7.56412,6.81214 7.55192,6.81385 7.53963,6.81526 7.52724,6.81635 7.51477,6.81715 7.50221,6.81762 7.48958,6.81778 3.70331,3.03151 3.71594,3.03135 3.7285,3.03087 3.74097,3.03008 3.75336,3.02898 3.76565,3.02758 3.77785,3.02587 3.78996,3.02387 3.80196,3.02157 3.81386,3.01898 3.82564,3.0161 3.83731,3.01294 3.84887,3.0095 3.86031,3.00579 3.87162,3.00181 3.8828,2.99756 3.89385,2.99304 3.90476,2.98827 3.91553,2.98324 3.92616,2.97796 3.93663,2.97243 3.94696,2.96665 3.95713,2.96064 3.96715,2.95439 3.97699,2.94791 3.98667,2.94119 3.99619,2.93426 4.00552,2.9271 4.01468,2.91972 4.02365,2.91213 4.03244,2.90433 4.04104,2.89633 "/>
     <polygon id="_329387952" class="fil1" points="5.28,4.65934 9.06626,8.44561 8.94297,8.38267 5.1567,4.5964 "/>
     <polygon id="_329387568" class="fil1" points="5.1567,4.5964 8.94297,8.38267 8.51873,8.16608 4.73246,4.37981 "/>
     <polygon id="_329387976" class="fil1" points="4.73246,4.37981 8.51873,8.16608 8.47232,8.14239 4.68606,4.35612 "/>
     <polygon id="_329387520" class="fil1" points="4.68606,4.35612 8.47232,8.14239 8.47233,8.61918 4.68606,4.83291 "/>
     <polygon id="_329387880" class="fil1" points="4.68606,4.83291 8.47233,8.61918 8.47224,8.62522 8.472,8.63124 8.47158,8.63721 8.47101,8.64314 8.47027,8.64903 8.46938,8.65488 8.46833,8.66068 8.46713,8.66643 8.46578,8.67213 8.46428,8.67778 8.46263,8.68338 8.46084,8.68892 8.45891,8.6944 8.45683,8.69983 8.45461,8.70519 8.45226,8.71049 8.44977,8.71572 8.44715,8.72089 8.44439,8.72599 8.44151,8.73102 8.4385,8.73598 8.43537,8.74086 8.43211,8.74567 8.42874,8.75039 8.42524,8.75504 8.42163,8.75961 8.41791,8.76409 8.41407,8.76849 8.41011,8.7728 8.40606,8.77702 8.40189,8.78115 8.39762,8.78519 4.61135,4.99891 4.61562,4.99488 4.61979,4.99075 4.62385,4.98653 4.6278,4.98222 4.63164,4.97782 4.63536,4.97334 4.63898,4.96877 4.64247,4.96412 4.64585,4.95939 4.6491,4.95459 4.65224,4.9497 4.65524,4.94475 4.65813,4.93972 4.66088,4.93462 4.6635,4.92945 4.66599,4.92422 4.66834,4.91892 4.67056,4.91356 4.67264,4.90813 4.67457,4.90265 4.67637,4.89711 4.67802,4.89151 4.67952,4.88586 4.68087,4.88016 4.68207,4.87441 4.68311,4.86861 4.684,4.86276 4.68474,4.85687 4.68531,4.85094 4.68573,4.84496 4.68598,4.83895 "/>
     <polygon id="_329387616" class="fil1" points="2.60727,3.03151 6.39354,6.81778 6.37711,6.81757 6.3608,6.81696 6.34458,6.81593 6.32848,6.8145 6.3125,6.81267 6.29663,6.81045 6.2809,6.80784 6.2653,6.80485 6.24983,6.80149 6.23451,6.79775 6.21933,6.79364 6.20431,6.78917 6.18945,6.78434 6.17475,6.77917 6.16021,6.77364 6.14585,6.76777 6.13166,6.76156 6.11766,6.75502 6.10384,6.74816 6.09022,6.74097 6.0768,6.73346 6.06357,6.72565 6.05056,6.71752 6.03775,6.70909 6.02517,6.70037 6.0128,6.69135 6.00067,6.68205 5.98876,6.67246 5.97709,6.66259 5.96567,6.65246 5.9545,6.64205 2.16823,2.85578 2.17941,2.86619 2.19083,2.87632 2.2025,2.88619 2.2144,2.89578 2.22654,2.90508 2.2389,2.9141 2.25148,2.92282 2.26429,2.93125 2.2773,2.93937 2.29053,2.94719 2.30395,2.9547 2.31757,2.96189 2.33139,2.96875 2.34539,2.97529 2.35958,2.9815 2.37394,2.98737 2.38848,2.99289 2.40318,2.99807 2.41805,3.0029 2.43307,3.00737 2.44824,3.01148 2.46357,3.01522 2.47903,3.01858 2.49463,3.02157 2.51037,3.02418 2.52623,3.0264 2.54221,3.02822 2.55831,3.02966 2.57453,3.03069 2.59085,3.0313 "/>
     <polygon id="_329387328" class="fil1" points="4.43152,5.06787 8.21778,8.85415 5.58748,8.85415 1.80121,5.06787 "/>
     <polygon id="_329387424" class="fil1" points="1.80121,5.06787 5.58748,8.85415 5.58093,8.85407 5.57441,8.85384 5.56794,8.85346 5.56152,8.85293 5.55513,8.85225 5.5488,8.85143 5.54252,8.85046 5.53629,8.84935 5.53011,8.84811 5.52399,8.84672 5.51793,8.8452 5.51193,8.84354 5.50599,8.84176 5.50011,8.83984 5.4943,8.83779 5.48856,8.83562 5.48289,8.83332 5.47729,8.8309 5.47176,8.82836 5.46631,8.8257 5.46094,8.82293 5.45566,8.82003 5.45045,8.81703 5.44533,8.81391 5.44029,8.81068 5.43535,8.80735 5.43049,8.80391 5.42572,8.80036 5.42106,8.79672 5.41648,8.79297 1.63022,5.0067 1.63479,5.01044 1.63946,5.01409 1.64422,5.01764 1.64908,5.02108 1.65402,5.02441 1.65906,5.02764 1.66418,5.03076 1.66939,5.03376 1.67468,5.03665 1.68005,5.03943 1.6855,5.04209 1.69102,5.04463 1.69662,5.04705 1.70229,5.04935 1.70803,5.05152 1.71384,5.05357 1.71972,5.05548 1.72566,5.05727 1.73166,5.05893 1.73772,5.06045 1.74385,5.06183 1.75002,5.06308 1.75625,5.06419 1.76254,5.06516 1.76887,5.06598 1.77525,5.06666 1.78167,5.06719 1.78815,5.06757 1.79466,5.0678 "/>
     <polygon id="_329388600" class="fil1" points="4.61135,4.99891 8.39762,8.78519 8.39325,8.78913 8.38878,8.79297 8.3842,8.79672 8.37954,8.80036 8.37477,8.80391 8.36991,8.80735 8.36497,8.81068 8.35993,8.81391 8.35481,8.81703 8.3496,8.82003 8.34431,8.82293 8.33894,8.8257 8.3335,8.82836 8.32797,8.8309 8.32237,8.83332 8.3167,8.83562 8.31096,8.83779 8.30515,8.83984 8.29927,8.84176 8.29333,8.84354 8.28733,8.8452 8.28127,8.84672 8.27515,8.84811 8.26897,8.84935 8.26274,8.85046 8.25646,8.85143 8.25012,8.85225 8.24374,8.85293 8.23731,8.85346 8.23085,8.85384 8.22433,8.85407 8.21778,8.85415 4.43152,5.06787 4.43807,5.0678 4.44458,5.06757 4.45105,5.06719 4.45748,5.06666 4.46385,5.06598 4.47019,5.06516 4.47647,5.06419 4.4827,5.06308 4.48888,5.06183 4.495,5.06045 4.50106,5.05893 4.50706,5.05727 4.513,5.05548 4.51888,5.05357 4.52469,5.05152 4.53043,5.04935 4.5361,5.04705 4.5417,5.04463 4.54723,5.04209 4.55268,5.03943 4.55805,5.03665 4.56333,5.03376 4.56854,5.03076 4.57367,5.02764 4.5787,5.02441 4.58365,5.02108 4.5885,5.01764 4.59327,5.01409 4.59794,5.01044 4.60251,5.0067 4.60698,5.00285 "/>
     <polygon id="_329388408" class="fil1" points="4.19282,2.542 7.97909,6.32827 7.97893,6.34091 7.97845,6.35346 7.97766,6.36593 7.97656,6.37832 7.97516,6.39061 7.97345,6.40281 7.97144,6.41492 7.96915,6.42692 7.96656,6.43881 7.96368,6.4506 7.96052,6.46228 7.95708,6.47383 7.95337,6.48526 7.94939,6.49657 7.94513,6.50776 7.94062,6.5188 7.93585,6.52972 7.93081,6.54049 7.92554,6.55111 7.92,6.56159 7.91423,6.57192 7.90822,6.58209 7.90196,6.59211 7.89548,6.60195 7.88877,6.61163 7.88183,6.62115 7.87468,6.63048 7.8673,6.63964 7.85971,6.64861 7.85191,6.6574 7.84391,6.666 7.8357,6.6744 4.04944,2.88813 4.05764,2.87972 4.06565,2.87113 4.07344,2.86234 4.08103,2.85337 4.08841,2.84421 4.09557,2.83487 4.1025,2.82536 4.10922,2.81568 4.1157,2.80583 4.12195,2.79582 4.12796,2.78565 4.13374,2.77532 4.13927,2.76484 4.14455,2.75422 4.14958,2.74344 4.15435,2.73253 4.15887,2.72148 4.16312,2.7103 4.1671,2.69899 4.17081,2.68756 4.17425,2.676 4.17741,2.66433 4.18029,2.65254 4.18288,2.64065 4.18518,2.62865 4.18718,2.61654 4.18889,2.60434 4.1903,2.59205 4.19139,2.57966 4.19219,2.56719 4.19266,2.55463 "/>
     <polygon id="_329388648" class="fil1" points="5.28,3.44004 9.06626,7.22631 9.06626,7.36483 5.28,3.57856 "/>
     <polygon id="_329388480" class="fil1" points="4.62385,3.11285 8.41011,6.89913 8.41407,6.90344 8.41791,6.90783 8.42163,6.91231 8.42524,6.91688 8.42874,6.92153 8.43211,6.92626 8.43537,6.93107 8.4385,6.93595 8.44151,6.94091 8.44439,6.94593 8.44715,6.95104 8.44977,6.9562 8.45226,6.96144 8.45461,6.96674 8.45683,6.9721 8.45891,6.97752 8.46084,6.98301 8.46263,6.98855 8.46428,6.99415 8.46578,6.9998 8.46713,7.0055 8.46833,7.01125 8.46938,7.01705 8.47027,7.02289 8.47101,7.02878 8.47158,7.03472 8.472,7.04069 8.47224,7.0467 8.47233,7.05275 4.68606,3.26648 4.68598,3.26043 4.68573,3.25442 4.68531,3.24844 4.68474,3.24251 4.684,3.23662 4.68311,3.23078 4.68207,3.22498 4.68087,3.21922 4.67952,3.21352 4.67802,3.20787 4.67637,3.20228 4.67457,3.19674 4.67264,3.19125 4.67056,3.18583 4.66834,3.18046 4.66599,3.17517 4.6635,3.16993 4.66088,3.16476 4.65813,3.15966 4.65524,3.15463 4.65224,3.14968 4.6491,3.1448 4.64585,3.13999 4.64247,3.13526 4.63898,3.13061 4.63536,3.12604 4.63164,3.12156 4.6278,3.11717 "/>
     <polygon id="_329388576" class="fil1" points="5.28,4.52083 9.06626,8.3071 9.06626,8.44561 5.28,4.65934 "/>
     <polygon id="_329388528" class="fil1" points="4.68606,3.26648 8.47233,7.05275 8.47232,7.52954 4.68606,3.74327 "/>
     <polygon id="_329388696" class="fil1" points="5.28,3.57856 9.06626,7.36483 9.06626,8.3071 5.28,4.52083 "/>
    </g>
    <path id="_328322904" class="fil1" d="M4.73246 3.71958l0.42424 -0.216591 0.123295 -0.0629488 0 0.138516 0 0.942268 0 0.138512 -0.123295 -0.0629409 -0.42424 -0.216587 -0.0464055 -0.0236929 3.93701e-006 0.476787c0,0.0647008 -0.0286142,0.123461 -0.0747047,0.166008 -0.0460945,0.0425472 -0.109752,0.0689606 -0.179839,0.0689606l-2.63031 0c-0.0700906,0 -0.133744,-0.0264134 -0.179839,-0.0689606 -0.0460906,-0.0425472 -0.0747087,-0.101307 -0.0747087,-0.166008l0 -0.783213 0 -0.00255906 0 -0.780657c0,-0.0647008 0.0286181,-0.123457 0.0747087,-0.166008 0.0460945,-0.0425472 0.109748,-0.0689567 0.179839,-0.0689567l0.806063 0c-0.175713,0 -0.334807,-0.0712362 -0.449969,-0.186398 -0.115161,-0.115161 -0.186394,-0.274252 -0.186394,-0.449969 0,-0.175713 0.0712323,-0.334803 0.186394,-0.449965 0.115161,-0.115165 0.274256,-0.186398 0.449969,-0.186398 0.175713,0 0.334807,0.0712323 0.449969,0.186398 0.110583,0.110583 0.180657,0.261669 0.186059,0.429083 0.0246969,-0.0677047 0.0639134,-0.128421 0.113886,-0.17839 0.0885827,-0.0885906 0.210965,-0.143386 0.346126,-0.143386 0.135169,0 0.257547,0.0547953 0.346126,0.143386 0.0885906,0.0885827 0.143386,0.210961 0.143386,0.346126 0,0.135161 -0.0547953,0.257547 -0.143386,0.346126 -0.0885787,0.0885906 -0.210957,0.143386 -0.346126,0.143386l0.728205 0c0.0700866,0 0.133744,0.0264094 0.179839,0.0689567 0.0460906,0.0425512 0.0747047,0.101307 0.0747047,0.166008l-3.93701e-006 0.476791 0.0464055 -0.023685z"/>
   </g>
  </g>
  <path class="fil2" d="M3.41333 0c1.88513,0 3.41333,1.5282 3.41333,3.41333 0,1.88513 -1.5282,3.41333 -3.41333,3.41333 -1.88513,0 -3.41333,-1.5282 -3.41333,-3.41333 0,-1.88513 1.5282,-3.41333 3.41333,-3.41333z"/>
  <polygon class="fil3" points="4.73246,3.71958 5.1567,3.50299 5.28,3.44004 5.28,3.57856 5.28,4.52083 5.28,4.65934 5.1567,4.5964 4.73246,4.37981 4.68606,4.35612 4.68606,4.30424 4.68606,3.79515 4.68606,3.74327 "/>
  <path class="fil4" d="M3.70331 2.05249c0.135169,0 0.257547,0.0547953 0.346126,0.143386 0.0885906,0.0885827 0.143386,0.210961 0.143386,0.346126 0,0.135161 -0.0547953,0.257547 -0.143386,0.346126 -0.0885787,0.0885906 -0.210957,0.143386 -0.346126,0.143386 -0.135161,0 -0.257543,-0.0547953 -0.346126,-0.143386 -0.0885906,-0.0885787 -0.143386,-0.210965 -0.143386,-0.346126 0,-0.135165 0.0547953,-0.257543 0.143386,-0.346126 0.0885827,-0.0885906 0.210965,-0.143386 0.346126,-0.143386z"/>
  <path class="fil4" d="M2.60727 1.75878c0.175713,0 0.334807,0.0712323 0.449969,0.186398 0.115161,0.115161 0.186394,0.274252 0.186394,0.449965 0,0.175717 -0.0712323,0.334807 -0.186394,0.449969 -0.115161,0.115161 -0.274256,0.186398 -0.449969,0.186398 -0.175713,0 -0.334807,-0.0712362 -0.449969,-0.186398 -0.115161,-0.115161 -0.186394,-0.274252 -0.186394,-0.449969 0,-0.175713 0.0712323,-0.334803 0.186394,-0.449965 0.115161,-0.115165 0.274256,-0.186398 0.449969,-0.186398z"/>
  <path class="fil3" d="M2.05576 4.38908l1.1811e-005 0 1.1811e-005 -1.9685e-005c7.87402e-006,-3.14961e-005 2.3622e-005,-5.90551e-005 3.93701e-005,-4.33071e-005 1.5748e-005,1.5748e-005 -7.87402e-006,3.14961e-005 -3.93701e-005,4.33071e-005l-2.3622e-005 7.87402e-006 0 1.1811e-005z"/>
  <path class="fil3" d="M2.05577 3.62545l-1.1811e-005 0 0 1.5748e-005 2.3622e-005 7.87402e-006 -3.93701e-006 -7.87402e-006 7.87402e-006 7.87402e-006c2.75591e-005,7.87402e-006 5.11811e-005,2.3622e-005 3.54331e-005,3.93701e-005 -1.9685e-005,1.5748e-005 -3.14961e-005,-1.5748e-005 -3.93701e-005,-3.93701e-005l3.93701e-006 0 -7.87402e-006 -7.87402e-006 -7.87402e-006 -1.5748e-005z"/>
  <path class="fil5" d="M4.68606 4.04969l0 0.783213c0,0.0647008 -0.0286142,0.123461 -0.0747047,0.166008 -0.0460945,0.0425472 -0.109752,0.0689606 -0.179839,0.0689606l-2.63031 0c-0.0700906,0 -0.133744,-0.0264134 -0.179839,-0.0689606 -0.0460906,-0.0425472 -0.0747087,-0.101307 -0.0747087,-0.166008l0 -0.783213 3.1394 0z"/>
  <path class="fil4" d="M1.80121 3.03151l2.63031 0c0.0700866,0 0.133744,0.0264094 0.179839,0.0689567 0.0460906,0.0425512 0.0747047,0.101307 0.0747047,0.166008l0 0.782764 0 0.000452756 -3.1394 0 0 -0.00255906 0 -0.780657c0,-0.0647008 0.0286181,-0.123457 0.0747087,-0.166008 0.0460945,-0.0425472 0.109748,-0.0689567 0.179839,-0.0689567z"/>
  <path class="fil3" d="M2.05575 3.45575l1.35758 0c0.046752,0 0.0891969,0.0190669 0.119917,0.0497795 0.0307126,0.0307205 0.0497795,0.0731614 0.0497795,0.119917l0 0.763638c0,0.0467598 -0.0190669,0.0892047 -0.0497835,0.119913 -0.0307087,0.0307165 -0.0731535,0.0497835 -0.119913,0.0497835l-1.35758 0c-0.046752,0 -0.0891969,-0.0190669 -0.119913,-0.0497795 -0.0307126,-0.0307205 -0.0497835,-0.0731654 -0.0497835,-0.119917l0 -0.763638c0,-0.0467559 0.0190709,-0.0891969 0.0497835,-0.119917 0.0307165,-0.0307126 0.0731614,-0.0497795 0.119913,-0.0497795z"/>
  <polygon class="fil3" points="3.92242,3.5406 4.17696,3.5406 4.17696,3.7103 3.92242,3.7103 "/>
  <path class="fil3" d="M2.60727 2.09818c0.082,0 0.15624,0.0332402 0.209984,0.0869843 0.0537402,0.0537402 0.0869843,0.127984 0.0869843,0.20998 0,0.082 -0.0332441,0.156244 -0.0869843,0.209984 -0.0537441,0.0537441 -0.127984,0.0869843 -0.209984,0.0869843 -0.082,0 -0.15624,-0.0332402 -0.209984,-0.0869843 -0.0537402,-0.0537402 -0.0869843,-0.127984 -0.0869843,-0.209984 0,-0.0819961 0.0332441,-0.15624 0.0869843,-0.20998 0.0537441,-0.0537441 0.127984,-0.0869843 0.209984,-0.0869843z"/>
  <path class="fil3" d="M3.70331 2.32988c0.0585709,0 0.111602,0.0237441 0.149988,0.0621339 0.0383858,0.0383858 0.0621299,0.0914173 0.0621299,0.149988 0,0.0585709 -0.0237441,0.111602 -0.0621299,0.149988 -0.0383858,0.0383858 -0.0914173,0.0621299 -0.149988,0.0621299 -0.0585709,0 -0.111602,-0.0237441 -0.149988,-0.0621299 -0.0383898,-0.0383858 -0.0621339,-0.0914173 -0.0621339,-0.149988 0,-0.0585709 0.0237441,-0.111602 0.0621339,-0.149988 0.0383858,-0.0383898 0.0914173,-0.0621339 0.149988,-0.0621339z"/>
 </g>
</svg>
